<svg width="512" height="512" viewBox="0 0 512 512" fill="none" xmlns="http://www.w3.org/2000/svg">
<rect width="512" height="512" rx="52" fill="#529281" style="fill:#529281;fill:color(display-p3 0.3216 0.5725 0.5059);fill-opacity:1;"/>
<path d="M256 117.875C223.126 117.875 197.647 166.516 193.079 234.091C198.976 240.36 205.903 246.576 213.585 252.643C213.67 245.588 214.084 238.862 214.658 232.264C221.194 227.665 227.896 223.306 234.75 219.195C263.012 202.875 292.104 192.122 316.637 188.935C321.097 188.344 325.589 188.039 330.088 188.021C343.869 188.021 353.622 191.336 357.224 197.562C360.465 203.204 359.009 212.172 353.58 222.669C359.137 227.822 364.417 233.05 369.092 238.32C381.056 218.526 383.5 200.537 375.627 186.938C366.245 170.713 344.368 163.903 313.949 167.844C286.685 171.372 254.81 183.081 224.136 200.803C222.181 201.919 220.364 203.162 218.451 204.373C226.08 165.05 241.603 139.125 256 139.125C262.726 139.125 269.706 144.863 276.007 154.818C283.012 152.603 290.118 150.717 297.299 149.166C286.302 129.456 272.012 117.875 256 117.875ZM183.952 166.888C160.906 166.474 144.225 173.369 136.384 186.938C127.841 201.706 131.401 221.554 146.095 243.346C147.423 245.375 148.879 247.532 150.706 249.901C167.387 271.725 193.451 293.474 224.125 311.207C226.08 312.323 228.109 313.322 230.107 314.438C217.941 318.634 206.158 321.662 195.321 323.076C174.602 325.764 159.461 322.534 154.818 314.438C151.535 308.796 152.991 299.828 158.431 289.331C153.016 284.359 147.822 279.151 142.865 273.722C130.944 293.485 128.5 311.441 136.384 325.062C144.023 338.301 159.961 345.271 182.039 345.271C187.065 345.271 192.452 344.899 198.062 344.156C201.302 343.731 204.543 343.199 207.858 342.541L210.185 342.041C210.344 342.041 210.472 341.999 210.631 341.956C216.284 340.756 222.51 339.088 229.65 336.856L236.662 334.689C247.075 331.119 257.742 326.677 268.41 321.492C270.737 313.768 272.809 304.769 274.381 294.399C268.24 297.831 262.056 300.944 255.915 303.855C248.699 300.488 241.637 296.801 234.75 292.805C206.445 276.464 182.581 256.669 167.6 237.024C154.892 220.385 150.122 205.659 154.818 197.562C158.006 192.006 166.474 188.85 178.14 188.266C179.797 180.754 181.71 173.614 183.952 166.888ZM306.384 212.416C298.001 214.371 289.118 217.24 280.034 220.842C286.047 224.412 291.774 228.237 297.342 232.051C298.001 239.776 298.5 247.659 298.5 256C298.5 318.666 278.791 366.479 259.825 372.248C258.529 372.673 257.201 372.875 256 372.875C249.274 372.875 242.294 367.191 235.993 357.15C228.768 359.424 221.639 361.379 214.701 362.834C225.697 382.544 239.988 394.125 256 394.125C258.125 394.125 260.144 393.912 262.141 393.498C295.387 387.197 319.75 330.247 319.75 256C319.75 253.716 319.58 251.516 319.537 249.232C329.259 257.657 337.812 266.338 344.442 274.966C357.107 291.615 361.867 306.341 357.224 314.438C353.952 320.037 345.611 323.277 333.86 323.862C332.304 331.054 330.379 338.161 328.091 345.154C328.675 345.154 329.376 345.271 329.961 345.271C352.039 345.271 367.977 338.301 375.616 325.062C384.998 308.838 379.93 286.462 361.294 262.099C348.097 244.833 328.962 227.652 306.384 212.416ZM256 234.75C250.364 234.75 244.959 236.989 240.974 240.974C236.989 244.959 234.75 250.364 234.75 256C234.75 261.636 236.989 267.041 240.974 271.026C244.959 275.011 250.364 277.25 256 277.25C261.636 277.25 267.041 275.011 271.026 271.026C275.011 267.041 277.25 261.636 277.25 256C277.25 250.364 275.011 244.959 271.026 240.974C267.041 236.989 261.636 234.75 256 234.75Z" fill="white" style="fill:white;fill-opacity:1;"/>
</svg>
